# xmcd
#
# Track frame offsets: 
#        150
#        14053
#        28542
#        43202
#        60641
#        74900
#        89786
#        106340
#        121381
#        136374
#        149906
#        164876
#        180282
#
# Disc length: 2645 seconds
#
# Revision: 0
# Processed by: cddbd v1.5.2PL0 Copyright (c) Steve Scherf et al.
# Submitted via: ExactAudioCopy v1.3
#
DISCID=d20a530d
DTITLE=ZAYN - Icarus Falls
DYEAR=2018
DGENRE=R&B
TTITLE0=Let Me
TTITLE1=Natural
TTITLE2=Back To Life
TTITLE3=Common
TTITLE4=Imprint
TTITLE5=Stand Still
TTITLE6=Tonight
TTITLE7=Flight Of The Stars
TTITLE8=If I Got You
TTITLE9=Talk To Me
TTITLE10=There You Are
TTITLE11=I Don't Mind
TTITLE12=Icarus Interlude
EXTD=
EXTT0=
EXTT1=
EXTT2=
EXTT3=
EXTT4=
EXTT5=
EXTT6=
EXTT7=
EXTT8=
EXTT9=
EXTT10=
EXTT11=
EXTT12=
PLAYORDER=
